<svg xmlns="http://www.w3.org/2000/svg" width="100" height="100" viewBox="0 0 100 100"><g fill="#FFF"><path d="M92.837 71.088C91.72 49.4 74.377 31.933 52.73 30.568V26.22c5.63-1.24 9.85-6.25 9.85-12.25 0-6.912-5.628-12.542-12.54-12.542-6.912 0-12.542 5.63-12.542 12.542 0 6 4.222 11.01 9.85 12.25v4.347C25.704 31.933 8.403 49.4 7.244 71.087 3.063 72.33 0 76.222 0 80.816v7.615c0 5.588 4.553 10.14 10.14 10.14H89.86c5.587 0 10.14-4.552 10.14-10.14v-7.615c.082-4.594-2.98-8.485-7.16-9.727zM42.88 14.01c0-3.972 3.23-7.16 7.16-7.16 3.974 0 7.16 3.23 7.16 7.16 0 3.975-3.227 7.162-7.16 7.162-3.973 0-7.16-3.23-7.16-7.16zm7.16 21.855c19.744 0 35.968 15.355 37.376 34.768h-74.75c1.406-19.37 17.63-34.768 37.375-34.768zM94.7 88.39c0 2.648-2.152 4.76-4.76 4.76H10.223c-2.65 0-4.76-2.152-4.76-4.76v-7.616c0-2.648 2.152-4.76 4.76-4.76H89.94c2.648 0 4.76 2.152 4.76 4.76v7.616z"/><path d="M36.05 46.006c-11.878 3.353-14.775 15.19-14.9 15.688-.33 1.448.58 2.896 1.987 3.23.207.04.414.08.62.08 1.243 0 2.32-.827 2.608-2.068.042-.083 2.235-9.23 11.134-11.714 1.448-.414 2.276-1.903 1.862-3.31-.414-1.45-1.904-2.28-3.31-1.906z"/></g></svg>