<?xml version="1.0" encoding="utf-8"?>
<!-- Generator: Adobe Illustrator 15.0.0, SVG Export Plug-In . SVG Version: 6.00 Build 0)  -->
<!DOCTYPE svg PUBLIC "-//W3C//DTD SVG 1.1//EN" "http://www.w3.org/Graphics/SVG/1.1/DTD/svg11.dtd">
<svg version="1.1" id="Layer_1" xmlns="http://www.w3.org/2000/svg" xmlns:xlink="http://www.w3.org/1999/xlink" x="0px" y="0px"
	 width="100px" height="100px" viewBox="0 0 100 100" enable-background="new 0 0 100 100" xml:space="preserve">
<path fill="#FFFFFF" d="M97.204,90.077c-0.434-1.687-2.119-2.698-3.806-2.265l-8.622,2.217l-4.335-16.764
	c9.874-4.143,15.51-15.029,12.765-25.674L82.802,7.322c-0.434-1.686-2.12-2.697-3.806-2.264L46.53,13.439V3.131
	C46.53,1.397,45.133,0,43.398,0H5.826C4.092,0,2.695,1.397,2.695,3.131v41.57c0,11.031,8.189,20.184,18.786,21.676v17.342H12.57
	c-1.734,0-3.131,1.396-3.131,3.131s1.397,3.131,3.131,3.131h24.084c1.734,0,3.131-1.396,3.131-3.131s-1.397-3.131-3.131-3.131
	h-8.911V66.377C38.341,64.836,46.53,55.732,46.53,44.701v-2.553l4.239,16.377c2.505,9.683,11.224,16.426,21.195,16.426
	c0.818,0,1.589-0.047,2.408-0.145l4.335,16.813l-8.622,2.215c-1.687,0.434-2.697,2.12-2.264,3.806
	c0.385,1.396,1.638,2.36,3.034,2.36c0.241,0,0.53-0.048,0.771-0.097l23.314-6.021C96.626,93.449,97.638,91.764,97.204,90.077z
	 M77.551,11.898l2.891,11.224c-0.675-0.048-1.253-0.145-1.927-0.289c-1.831-0.337-4.047-0.723-7.756,0.192
	c-3.709,0.963-5.491,2.409-6.888,3.565c-1.253,1.011-2.119,1.734-4.479,2.36c-2.36,0.626-3.517,0.386-5.059,0.097
	c-1.252-0.241-2.697-0.482-4.672-0.337l-2.36-9.056L77.551,11.898z M40.268,6.262v11.609c-0.626-0.193-1.204-0.434-1.831-0.723
	c-1.686-0.771-3.757-1.734-7.563-1.734c-3.805,0-5.925,0.963-7.563,1.734c-1.445,0.674-2.505,1.156-4.961,1.156
	s-3.517-0.481-4.961-1.156c-1.156-0.53-2.505-1.156-4.432-1.493V6.31h31.31V6.262z M24.612,60.356
	c-8.622,0-15.655-7.032-15.655-15.655V22.014c0.626,0.192,1.204,0.434,1.831,0.722c1.686,0.771,3.757,1.734,7.563,1.734
	c3.805,0,5.925-0.963,7.563-1.734c1.445-0.674,2.505-1.156,4.961-1.156s3.517,0.481,4.961,1.156c1.156,0.53,2.505,1.156,4.432,1.494
	v20.424C40.268,53.324,33.235,60.356,24.612,60.356z M56.838,56.937l-5.684-21.965c0.674,0.048,1.252,0.145,1.927,0.289
	c0.963,0.192,2.071,0.385,3.468,0.385c1.204,0,2.602-0.145,4.287-0.578c3.709-0.963,5.491-2.408,6.889-3.564
	c1.252-1.012,2.119-1.734,4.528-2.36c2.359-0.626,3.516-0.385,5.105-0.096c1.252,0.241,2.697,0.481,4.673,0.337l5.105,19.798
	c2.168,8.381-2.89,16.908-11.224,19.075c-1.301,0.338-2.601,0.482-3.901,0.482C64.834,68.689,58.62,63.873,56.838,56.937z"/>
</svg>
