<svg xmlns="http://www.w3.org/2000/svg" width="100" height="100" viewBox="0 0 100 100"><g fill="#FFF"><circle cx="42.36" cy="46.18" r="5.195"/><circle cx="59.358" cy="46.18" r="5.195"/><circle cx="25.363" cy="46.18" r="5.195"/><path d="M79.946 19.824H4.774C2.14 19.824 0 21.964 0 24.6V67.76c0 2.636 2.14 4.774 4.774 4.774H44.69L71.504 94.88c.458.384 1.03.575 1.604.575.344 0 .726-.076 1.07-.23.877-.42 1.412-1.3 1.412-2.252V72.536h4.354c2.636 0 4.774-2.14 4.774-4.774V24.6c.003-2.637-2.136-4.776-4.772-4.776zm-.19 47.746H73.11c-1.375 0-2.482 1.107-2.482 2.483V87.66L47.21 68.145c-.457-.382-.992-.573-1.603-.573H4.967V24.79h74.79v42.78z"/><path d="M95.226 4.545H20.054c-2.636 0-4.775 2.14-4.775 4.775v3.438c0 1.375 1.107 2.483 2.482 2.483s2.483-1.107 2.483-2.482V9.51h74.79v42.782H91.79c-1.377 0-2.484 1.107-2.484 2.483 0 1.375 1.107 2.482 2.483 2.482h3.437c2.636 0 4.774-2.14 4.774-4.775V9.32c0-2.635-2.14-4.775-4.774-4.775z"/></g></svg>