<svg xmlns="http://www.w3.org/2000/svg" width="100" height="100" viewBox="0 0 100 100"><g fill="#FFF"><path d="M50.856 46.55c11.195 0 20.707-10.27 20.707-23.233S62.053 0 50.856 0 30.19 10.354 30.19 23.316 39.24 46.55 50.857 46.55zm0-37.543c6.48 0 12.08 6.565 12.08 14.73s-5.6 14.646-12.08 14.646c-6.44 0-12.08-6.48-12.08-14.646s5.178-14.73 12.08-14.73zM74.552 56.902c-15.95-5.64-33.165-5.64-49.116 0-7.323 2.61-13.342 11.195-12.5 18.94l1.305 20.285c0 2.104 2.147 3.872 4.294 3.872h62.92c2.147 0 4.336-1.77 4.336-3.873l1.263-20.286c.883-7.742-4.715-16.328-12.5-18.938zm3.03 34.428H22.405L21.143 75c-.463-3.45 2.988-8.586 6.86-10.354 13.805-5.135 29.335-4.714 43.098 0 4.336 1.768 7.366 6.902 6.903 10.354l-.42 16.33z"/></g></svg>