<svg xmlns="http://www.w3.org/2000/svg" width="100" height="100" viewBox="0 0 100 100"><g fill="#FFF"><path d="M95.39 10.447H4.61c-2.527 0-4.61 2.083-4.61 4.61v69.886c0 2.526 2.083 4.61 4.61 4.61h90.78c2.527 0 4.61-2.084 4.61-4.61V15.056c0-2.526-2.083-4.61-4.61-4.61zm-.51 5.12v13.965H5.12V15.568h89.76zM72.31 34.654v13.18H52.68v-13.18h19.632zM47.56 47.833H29.634v-13.18H47.56v13.18zm-23.046 0H5.12v-13.18h19.394v13.18zm0 5.12v13.18H5.12v-13.18h19.394zm5.12 0H47.56v13.18H29.634v-13.18zm17.925 18.3v13.18H29.634v-13.18H47.56zm5.12 0h19.632v13.18H52.68v-13.18zm0-5.12v-13.18h19.632v13.18H52.68zm24.753-13.18H94.88v13.18H77.432v-13.18zm0-5.12v-13.18H94.88v13.18H77.432zM5.12 71.252h19.394v13.18H5.12v-13.18zm72.313 13.18v-13.18H94.88v13.18H77.432z"/><path d="M37.248 24.923h25.504c1.4 0 2.56-1.16 2.56-2.56 0-1.4-1.16-2.562-2.56-2.562H37.248c-1.4 0-2.56 1.162-2.56 2.562s1.16 2.56 2.56 2.56z"/></g></svg>