<svg xmlns="http://www.w3.org/2000/svg" viewBox="0 0 87 87"><circle fill="#EEE" cx="43.5" cy="43.5" r="43.5"/><path fill="#D98637" d="M43.5 3C65.8 3 84 21.2 84 43.5S65.8 84 43.5 84 3 65.8 3 43.5 21.2 3 43.5 3m0-3C19.5 0 0 19.5 0 43.5S19.5 87 43.5 87 87 67.5 87 43.5 67.5 0 43.5 0z"/><g fill="#D98637"><path d="M29.4 43.5c.5 0 .9-.4.9-.9 0-7.2 5.9-13.1 13.2-13.1 7.3 0 13.2 5.9 13.2 13.1 0 .5.4.9.9.9s.9-.4.9-.9c0-8.3-6.8-15-15.1-15s-15.1 6.7-15.1 15c.1.5.5.9 1.1.9zM53.6 55.6c.4-.3.4-.9.1-1.3-.3-.4-.9-.4-1.3-.1-2.4 2.2-5.6 3.4-8.9 3.4-3.3 0-6.4-1.2-8.9-3.4-.4-.3-1-.3-1.3.1-.4.4-.3 1 .1 1.3 2.8 2.5 6.4 3.9 10.1 3.9 3.8 0 7.4-1.4 10.1-3.9zM24.6 48h37.7c.5 0 .9-.4.9-.9s-.4-.9-.9-.9H24.6c-.5 0-.9.4-.9.9 0 .4.4.9.9.9zM56.7 49.8H30.3c-.5 0-.9.4-.9.9s.4.9.9.9h26.4c.5 0 .9-.4.9-.9 0-.4-.4-.9-.9-.9z"/></g></svg>