<svg xmlns="http://www.w3.org/2000/svg" xmlns:xlink="http://www.w3.org/1999/xlink" width="100" height="100" viewBox="0 0 100 100"><defs><path id="a" d="M5.31 1.622h89.38V98.38H5.31z"/></defs><clipPath id="b"><use xlink:href="#a" overflow="visible"/></clipPath><path clip-path="url(#b)" fill="#FFF" d="M96.19 36.217c0-.48-.153-.833-.527-1.207L61.176.524C60.803.152 60.454 0 59.97 0c-.477 0-.838.155-1.203.523-.37.372-.523.724-.523 1.205v18.957l-2.412.16C29.95 22.568 13.13 31.283 7.195 46.05 4.952 51.722 3.81 58.95 3.81 67.517c0 7.057 2.804 16.925 8.333 29.332.107.253.246.568.432.99l.28.636c.246.554.474 1.063.683 1.523-.107-.793-.135-1.198-.14-1.45-.228-3.086-.342-5.91-.342-8.397 0-4.693.418-8.98 1.244-12.746.827-3.8 2.007-7.16 3.506-9.986 1.54-2.903 3.553-5.442 5.982-7.546 2.355-2.043 4.94-3.746 7.68-5.06 2.732-1.303 5.946-2.333 9.562-3.064 2.73-.556 6.954-1.06 12.558-1.494.624-.048 1.266-.09 1.92-.13l2.735-.158V70.71c0 .476.155.835.52 1.2.37.372.73.528 1.207.528.48 0 .83-.152 1.205-.527l34.49-34.487c.373-.372.524-.72.524-1.206"/></svg>