<svg xmlns="http://www.w3.org/2000/svg" width="100" height="100" viewBox="0 0 100 100"><g fill="#FFF"><path d="M69.98 72.655h7.66c12.34 0 22.36-10.02 22.36-22.36 0-11.264-8.406-20.622-19.255-22.154v-3.02c0-1.7-1.408-3.107-3.104-3.107H4.97c-1.7 0-3.106 1.408-3.106 3.106v20.454c0 13.956 7.287 26.21 18.22 33.21H5.59c-3.065 0-5.59 2.527-5.59 5.59 0 .497.124.993.373 1.45l3.85 7.37c.415 2.65 2.733 4.678 5.51 4.678h62.524c2.774 0 5.093-2.027 5.508-4.677l3.85-7.372c.25-.456.373-.952.373-1.448 0-3.064-2.526-5.592-5.59-5.592H62.526c2.733-1.697 5.217-3.767 7.453-6.128zm10.723-27.04v-11.18c7.413 1.45 13.044 7.993 13.044 15.86 0 8.903-7.246 16.15-16.148 16.15h-2.857c3.807-6.047 5.96-13.168 5.96-20.83zM75.03 85.08l-3.063 5.838c-.124.248-.25.54-.29.828H10.27c-.043-.29-.167-.58-.29-.828l-3.064-5.838H75.03zm-33.746-6.21c-18.303 0-33.21-14.91-33.21-33.21v-17.35h66.46v17.35c-.04 18.3-14.95 33.21-33.25 33.21zM32.63 18.287c.413.207.868.29 1.324.29 1.16 0 2.277-.662 2.815-1.78L41.53 6.57c.746-1.574.042-3.396-1.49-4.142-1.573-.746-3.395-.042-4.14 1.49l-4.763 10.23c-.744 1.57-.08 3.393 1.492 4.14zM42.567 18.287c.415.207.87.29 1.325.29 1.16 0 2.277-.662 2.815-1.78L51.47 6.57c.744-1.574.04-3.396-1.49-4.142-1.574-.746-3.396-.042-4.142 1.49l-4.763 10.23c-.743 1.57-.08 3.393 1.492 4.14z"/></g></svg>