<svg xmlns="http://www.w3.org/2000/svg" width="100" height="100" viewBox="0 0 100 100"><path fill="#FFF" d="M75.495 100c-1.425 0-3.562-.21-6.578-.67-3.1-.46-6.702-1.593-11.06-3.394-4.23-1.76-9.09-4.4-14.412-7.876-5.362-3.478-11.102-8.337-17.05-14.37-4.735-4.65-8.756-9.216-11.898-13.53S8.8 51.82 6.873 48.135C4.946 44.45 3.48 41.014 2.475 37.998 1.51 34.98.84 32.3.463 30.08c-.377-2.304-.502-4.105-.42-5.53.085-1.424.085-1.802.085-1.885 0-.126 0-.25.042-.377.167-1.215.544-2.43 1.13-3.645.588-1.257 1.384-2.304 2.263-3.142l13.28-13.28C18.268.797 20.07 0 21.955 0c1.466 0 2.807.42 3.938 1.3.92.71 1.718 1.55 2.346 2.554.04.042.082.126.124.21L39.047 24.38c.922 1.635 1.173 3.437.754 5.364-.376 1.8-1.214 3.31-2.43 4.566l-4.523 4.524c.25 1.005.754 2.136 1.383 3.435.754 1.507 1.927 3.35 3.477 5.53 1.592 2.177 3.854 4.733 6.83 7.624l.04.04c2.892 2.934 5.447 5.28 7.668 6.872 2.22 1.592 4.063 2.807 5.487 3.52 1.802.92 2.64 1.172 2.89 1.215l.504.084 5.32-5.404.126-.126c1.718-1.508 3.73-2.304 6.033-2.304 1.382 0 2.597.25 3.603.712.21.042.42.168.586.252L96.107 71.72s.042 0 .042.043c2.554 1.592 3.434 3.645 3.728 5.07 0 .04.042.125.042.166.293 2.388-.46 4.565-2.18 6.284L84.46 96.48c-.838.922-1.885 1.676-3.142 2.263-1.215.587-2.43.964-3.646 1.13-.083 0-.21.043-.293.043s-.21 0-.42.042c-.334 0-.837.042-1.465.042zM5.615 22.916c0 .25-.04.754-.083 1.885-.042.713 0 2.012.377 4.4.292 1.97.92 4.357 1.8 7.122.88 2.723 2.22 5.865 4.022 9.3 1.8 3.436 4.23 7.247 7.206 11.312 2.975 4.063 6.787 8.42 11.312 12.902 5.74 5.782 11.186 10.39 16.213 13.7 5.027 3.31 9.593 5.78 13.532 7.415 3.896 1.593 7.164 2.64 9.803 3.018 3.352.502 4.985.628 5.74.628.544 0 .88 0 1.047-.042.293-.042.46-.042.587-.042.628-.084 1.257-.335 1.927-.628.627-.294 1.172-.67 1.507-1.09l.126-.125 13.32-13.24c.503-.502.713-.963.63-1.633-.085-.377-.336-.88-1.216-1.425L74.53 65.187c-.167-.042-.334-.126-.502-.25-.042-.044-.42-.21-1.3-.21-.92 0-1.633.293-2.345.88l-5.655 5.738c-.46.46-1.006.796-1.718 1.048-.838.293-1.425.377-2.053.25l-1.257-.25c-1.09-.21-2.472-.754-4.315-1.72-1.718-.878-3.73-2.177-6.242-3.978-2.43-1.76-5.237-4.273-8.337-7.416-3.142-3.1-5.656-5.866-7.374-8.296-1.76-2.43-3.058-4.482-3.938-6.242-1.047-2.01-1.717-3.854-2.053-5.53-.04-.167-.04-.335-.04-.503 0-.503.082-1.006.292-1.593.25-.712.545-1.257 1.005-1.718l4.902-4.902c.5-.503.795-1.09.962-1.843.125-.628.084-1.13-.21-1.592 0-.042-.04-.042-.04-.084L23.67 6.744c-.293-.42-.587-.754-1.006-1.047-.21-.126-.377-.21-.67-.21-.335 0-.754.084-1.3.587l-13.32 13.32-.085.085c-.418.377-.753.88-1.088 1.508-.293.67-.502 1.3-.586 1.928z"/></svg>