<svg xmlns="http://www.w3.org/2000/svg" viewBox="0 0 87 87"><circle fill="#EEE" cx="43.5" cy="43.5" r="43.5"/><path fill="#D98637" d="M43.5 3C65.8 3 84 21.2 84 43.5S65.8 84 43.5 84 3 65.8 3 43.5 21.2 3 43.5 3m0-3C19.5 0 0 19.5 0 43.5S19.5 87 43.5 87 87 67.5 87 43.5 67.5 0 43.5 0z"/><g fill="#D98637"><path d="M43.5 52.4c-4.9 0-8.9-4-8.9-8.9s4-8.9 8.9-8.9 8.9 4 8.9 8.9-4 8.9-8.9 8.9zm0-16.1c-4 0-7.2 3.3-7.2 7.2s3.3 7.2 7.2 7.2 7.2-3.3 7.2-7.2-3.2-7.2-7.2-7.2zM43.5 32.9c-.5 0-.8-.4-.8-.8v-4.2c0-.5.4-.8.8-.8.5 0 .8.4.8.8v4.2c0 .4-.3.8-.8.8zM43.5 60c-.5 0-.8-.4-.8-.8V55c0-.5.4-.8.8-.8.5 0 .8.4.8.8v4.2c0 .4-.3.8-.8.8zM59.2 44.3H55c-.5 0-.8-.4-.8-.8 0-.5.4-.8.8-.8h4.2c.5 0 .8.4.8.8 0 .5-.4.8-.8.8zM32.1 44.3h-4.2c-.5 0-.8-.4-.8-.8 0-.5.4-.8.8-.8h4.2c.5 0 .8.4.8.8 0 .5-.4.8-.8.8zM51.6 36.3c-.2 0-.4-.1-.6-.2-.3-.3-.3-.9 0-1.2l3-3c.3-.3.9-.3 1.2 0 .3.3.3.9 0 1.2l-3 3c-.2.1-.4.2-.6.2zM32.4 55.4c-.2 0-.4-.1-.6-.2-.3-.3-.3-.9 0-1.2l3-3c.3-.3.9-.3 1.2 0 .3.3.3.9 0 1.2l-3 3c-.2.1-.4.2-.6.2zM54.6 55.4c-.2 0-.4-.1-.6-.2l-3-3c-.3-.3-.3-.9 0-1.2.3-.3.9-.3 1.2 0l3 3c.3.3.3.9 0 1.2-.2.1-.4.2-.6.2zM35.4 36.3c-.2 0-.4-.1-.6-.2l-3-3c-.3-.3-.3-.9 0-1.2.3-.3.9-.3 1.2 0l3 3c.3.3.3.9 0 1.2-.2.1-.4.2-.6.2z"/></g></svg>