<svg xmlns="http://www.w3.org/2000/svg" viewBox="0 123.6 595.3 595.3"><circle fill="#EEE" cx="297.6" cy="421.2" r="297.6"/><path fill="#D98637" d="M297.6 144.1c152.6 0 277.1 124.5 277.1 277.1S450.2 698.3 297.6 698.3 20.5 573.8 20.5 421.2s124.6-277.1 277.1-277.1m0-20.5C133.4 123.6 0 257 0 421.2s133.4 297.6 297.6 297.6 297.6-133.4 297.6-297.6-133.3-297.6-297.6-297.6z"/><path fill="#D98637" d="M323.3 536.5c22.6 0 44.6-6.2 63.8-17.9 2.2-1.3 3.5-3.6 3.5-6.1 0-2.5-1.3-4.8-3.5-6.1-30.6-18.7-48.9-50.5-48.9-85.2s18.3-66.6 48.9-85.2c2.2-1.3 3.5-3.6 3.5-6.1 0-2.5-1.3-4.8-3.5-6.1-19.2-11.7-41.2-17.9-63.8-17.9-66 0-119.6 51.7-119.6 115.3s53.7 115.3 119.6 115.3zm0-216.2c15.9 0 31.6 3.5 45.8 10.3-28.9 21.8-45.8 54.9-45.8 90.6 0 35.7 16.9 68.8 45.8 90.6-14.3 6.7-29.9 10.3-45.8 10.3-57.7 0-104.7-45.3-104.7-100.9.1-55.6 47-100.9 104.7-100.9z"/></svg>