<svg xmlns="http://www.w3.org/2000/svg" width="100" height="100" viewBox="0 0 100 100"><path fill="#FFF" d="M97.204 90.077c-.434-1.687-2.12-2.698-3.806-2.265l-8.622 2.217-4.335-16.765c9.875-4.143 15.51-15.03 12.766-25.674L82.802 7.323c-.434-1.686-2.12-2.697-3.806-2.264l-32.466 8.38V3.132c0-1.733-1.397-3.13-3.132-3.13H5.826c-1.734 0-3.13 1.397-3.13 3.13V44.7c0 11.032 8.188 20.185 18.785 21.677V83.72h-8.91c-1.734 0-3.13 1.395-3.13 3.13s1.396 3.13 3.13 3.13h24.084c1.734 0 3.13-1.395 3.13-3.13s-1.396-3.13-3.13-3.13h-8.91V66.376C38.34 64.837 46.53 55.732 46.53 44.7V42.15l4.24 16.377c2.504 9.683 11.223 16.426 21.194 16.426.818 0 1.59-.046 2.408-.144l4.335 16.813-8.622 2.214c-1.687.434-2.697 2.12-2.264 3.806.386 1.396 1.64 2.36 3.035 2.36.24 0 .53-.048.77-.097l23.315-6.02c1.686-.434 2.698-2.12 2.264-3.806zM77.55 11.897l2.892 11.225c-.675-.048-1.253-.145-1.927-.29-1.83-.336-4.047-.722-7.756.193-3.71.963-5.492 2.41-6.89 3.565-1.252 1.01-2.118 1.734-4.478 2.36-2.36.626-3.517.386-5.06.097-1.25-.24-2.696-.482-4.67-.337l-2.36-9.056 30.25-7.756zM40.27 6.263v11.61c-.626-.194-1.204-.435-1.83-.724-1.687-.77-3.758-1.734-7.564-1.734-3.805 0-5.925.963-7.563 1.734-1.444.674-2.504 1.156-4.96 1.156s-3.517-.48-4.96-1.156c-1.157-.53-2.506-1.156-4.433-1.493V6.31h31.31v-.048zM24.612 60.356c-8.622 0-15.655-7.032-15.655-15.655V22.015c.626.192 1.204.434 1.83.722 1.687.77 3.758 1.734 7.564 1.734s5.926-.963 7.564-1.734c1.445-.674 2.505-1.156 4.96-1.156s3.518.48 4.962 1.156c1.156.53 2.505 1.156 4.432 1.494v20.424c0 8.67-7.033 15.702-15.656 15.702zm32.226-3.42l-5.684-21.964c.674.048 1.252.145 1.927.29.964.19 2.072.384 3.47.384 1.203 0 2.6-.145 4.286-.578 3.71-.963 5.49-2.408 6.89-3.564 1.25-1.012 2.118-1.734 4.527-2.36 2.36-.626 3.516-.385 5.105-.096 1.252.24 2.697.48 4.673.337l5.106 19.798c2.168 8.38-2.89 16.908-11.224 19.075-1.3.338-2.6.482-3.9.482-7.178-.05-13.392-4.867-15.174-11.803z"/></svg>