<?xml version="1.0" encoding="utf-8"?>
<!-- Generator: Adobe Illustrator 15.0.0, SVG Export Plug-In . SVG Version: 6.00 Build 0)  -->
<!DOCTYPE svg PUBLIC "-//W3C//DTD SVG 1.1//EN" "http://www.w3.org/Graphics/SVG/1.1/DTD/svg11.dtd">
<svg version="1.1" id="Layer_3" xmlns="http://www.w3.org/2000/svg" xmlns:xlink="http://www.w3.org/1999/xlink" x="0px" y="0px"
	 width="100px" height="100px" viewBox="0 0 100 100" enable-background="new 0 0 100 100" xml:space="preserve">
<g>
	<path fill="#FFFFFF" d="M50.856,46.549c11.195,0,20.707-10.27,20.707-23.232S62.052,0,50.856,0S30.191,10.354,30.191,23.316
		S39.24,46.549,50.856,46.549z M50.856,9.007c6.481,0,12.079,6.565,12.079,14.73s-5.598,14.646-12.079,14.646
		c-6.439,0-12.08-6.481-12.08-14.646S43.954,9.007,50.856,9.007z"/>
	<path fill="#FFFFFF" d="M74.552,56.902c-15.951-5.64-33.165-5.64-49.116,0c-7.323,2.609-13.342,11.195-12.5,18.939l1.305,20.286
		c0,2.104,2.146,3.872,4.293,3.872h62.921c2.146,0,4.335-1.768,4.335-3.872l1.263-20.286C87.936,68.098,82.338,59.512,74.552,56.902
		z M77.582,91.33H22.405L21.143,75c-0.463-3.451,2.988-8.586,6.86-10.354c13.805-5.135,29.335-4.714,43.098,0
		c4.335,1.768,7.365,6.902,6.902,10.354L77.582,91.33z"/>
</g>
</svg>
