<?xml version="1.0" encoding="utf-8"?>
<!-- Generator: Adobe Illustrator 15.0.0, SVG Export Plug-In . SVG Version: 6.00 Build 0)  -->
<!DOCTYPE svg PUBLIC "-//W3C//DTD SVG 1.1//EN" "http://www.w3.org/Graphics/SVG/1.1/DTD/svg11.dtd">
<svg version="1.1" id="Layer_1" xmlns="http://www.w3.org/2000/svg" xmlns:xlink="http://www.w3.org/1999/xlink" x="0px" y="0px"
	 width="100px" height="100px" viewBox="0 0 100 100" enable-background="new 0 0 100 100" xml:space="preserve">
<g>
	<path fill="#FFFFFF" d="M92.837,71.088C91.72,49.4,74.378,31.933,52.73,30.567v-4.346c5.629-1.242,9.851-6.25,9.851-12.251
		c0-6.912-5.629-12.542-12.541-12.542c-6.912,0-12.542,5.629-12.542,12.542c0,6.001,4.222,11.01,9.851,12.251v4.346
		C25.703,31.933,8.402,49.4,7.243,71.088C3.063,72.33,0,76.221,0,80.815v7.615c0,5.588,4.553,10.141,10.141,10.141h79.717
		c5.587,0,10.141-4.553,10.141-10.141v-7.615C100.08,76.221,97.018,72.33,92.837,71.088z M42.88,14.011
		c0-3.973,3.229-7.16,7.161-7.16c3.973,0,7.16,3.229,7.16,7.16c0,3.974-3.228,7.161-7.16,7.161
		C46.067,21.172,42.88,17.943,42.88,14.011z M50.041,35.865c19.743,0,35.967,15.355,37.375,34.768h-74.75
		C14.072,51.263,30.297,35.865,50.041,35.865z M94.7,88.39c0,2.648-2.152,4.76-4.76,4.76H10.223c-2.649,0-4.76-2.152-4.76-4.76
		v-7.616c0-2.648,2.152-4.76,4.76-4.76H89.94c2.648,0,4.76,2.152,4.76,4.76V88.39z"/>
	<path fill="#FFFFFF" d="M36.051,46.006c-11.879,3.353-14.776,15.19-14.9,15.688c-0.332,1.448,0.579,2.896,1.986,3.229
		c0.207,0.041,0.414,0.082,0.621,0.082c1.242,0,2.318-0.828,2.607-2.069c0.042-0.083,2.235-9.229,11.134-11.714
		c1.449-0.414,2.277-1.903,1.863-3.311C38.948,46.461,37.458,45.633,36.051,46.006z"/>
</g>
</svg>
