<?xml version="1.0" encoding="utf-8"?>
<!-- Generator: Adobe Illustrator 18.0.0, SVG Export Plug-In . SVG Version: 6.00 Build 0)  -->
<!DOCTYPE svg PUBLIC "-//W3C//DTD SVG 1.1//EN" "http://www.w3.org/Graphics/SVG/1.1/DTD/svg11.dtd">
<svg version="1.1" id="Layer_1" xmlns="http://www.w3.org/2000/svg" xmlns:xlink="http://www.w3.org/1999/xlink" x="0px" y="0px"
	 viewBox="0 123.6 595.3 595.3" enable-background="new 0 123.6 595.3 595.3" xml:space="preserve">
<g>
	<circle fill="#EEEEEE" cx="297.6" cy="421.2" r="297.6"/>
	<path fill="#D98637" d="M297.6,144.1c152.6,0,277.1,124.5,277.1,277.1S450.2,698.3,297.6,698.3S20.5,573.8,20.5,421.2
		S145.1,144.1,297.6,144.1 M297.6,123.6C133.4,123.6,0,257,0,421.2s133.4,297.6,297.6,297.6s297.6-133.4,297.6-297.6
		S461.9,123.6,297.6,123.6L297.6,123.6z"/>
</g>
<path fill="#D98637" d="M323.3,536.5c22.6,0,44.6-6.2,63.8-17.9c2.2-1.3,3.5-3.6,3.5-6.1c0-2.5-1.3-4.8-3.5-6.1
	c-30.6-18.7-48.9-50.5-48.9-85.2c0-34.7,18.3-66.6,48.9-85.2c2.2-1.3,3.5-3.6,3.5-6.1c0-2.5-1.3-4.8-3.5-6.1
	c-19.2-11.7-41.2-17.9-63.8-17.9c-66,0-119.6,51.7-119.6,115.3S257.4,536.5,323.3,536.5z M323.3,320.3c15.9,0,31.6,3.5,45.8,10.3
	c-28.9,21.8-45.8,54.9-45.8,90.6c0,35.7,16.9,68.8,45.8,90.6c-14.3,6.7-29.9,10.3-45.8,10.3c-57.7,0-104.7-45.3-104.7-100.9
	C218.7,365.6,265.6,320.3,323.3,320.3z"/>
</svg>
