<?xml version="1.0" encoding="utf-8"?>
<!-- Generator: Adobe Illustrator 15.0.0, SVG Export Plug-In . SVG Version: 6.00 Build 0)  -->
<!DOCTYPE svg PUBLIC "-//W3C//DTD SVG 1.1//EN" "http://www.w3.org/Graphics/SVG/1.1/DTD/svg11.dtd">
<svg version="1.1" id="Layer_1" xmlns="http://www.w3.org/2000/svg" xmlns:xlink="http://www.w3.org/1999/xlink" x="0px" y="0px"
	 width="100px" height="100px" viewBox="0 0 100 100" enable-background="new 0 0 100 100" xml:space="preserve">
<g>
	<path fill="#FFFFFF" d="M69.979,72.655h7.661C89.98,72.655,100,62.635,100,50.294c0-11.263-8.406-20.621-19.255-22.153v-3.022
		c0-1.698-1.408-3.106-3.104-3.106H4.969c-1.698,0-3.105,1.408-3.105,3.106v20.455c0,13.956,7.287,26.211,18.219,33.209H5.59
		C2.525,78.783,0,81.311,0,84.375c0,0.496,0.124,0.992,0.373,1.448l3.851,7.372c0.414,2.649,2.732,4.677,5.508,4.677h62.525
		c2.774,0,5.093-2.027,5.508-4.677l3.851-7.372c0.248-0.456,0.372-0.952,0.372-1.448c0-3.064-2.526-5.592-5.59-5.592H62.526
		C65.259,77.086,67.743,75.016,69.979,72.655z M80.703,45.616v-11.18c7.413,1.449,13.044,7.992,13.044,15.859
		c0,8.903-7.246,16.149-16.148,16.149h-2.856C78.55,60.398,80.703,53.277,80.703,45.616z M75.031,85.078l-3.064,5.838
		c-0.124,0.248-0.249,0.539-0.29,0.828H10.269c-0.042-0.289-0.166-0.58-0.29-0.828l-3.063-5.838H75.031z M41.284,78.867
		c-18.303,0-33.21-14.908-33.21-33.21v-17.35h66.46v17.35C74.493,63.959,59.585,78.867,41.284,78.867z"/>
	<path fill="#FFFFFF" d="M32.629,18.287c0.414,0.207,0.869,0.29,1.325,0.29c1.159,0,2.277-0.662,2.815-1.78l4.762-10.228
		c0.745-1.573,0.041-3.395-1.491-4.141c-1.573-0.746-3.395-0.042-4.141,1.491l-4.762,10.228
		C30.393,15.719,31.056,17.541,32.629,18.287z"/>
	<path fill="#FFFFFF" d="M42.567,18.287c0.415,0.207,0.87,0.29,1.325,0.29c1.16,0,2.277-0.662,2.815-1.78l4.762-10.228
		c0.745-1.573,0.041-3.395-1.489-4.141c-1.574-0.746-3.396-0.042-4.142,1.491l-4.763,10.228
		C40.332,15.719,40.994,17.541,42.567,18.287z"/>
</g>
</svg>
