<?xml version="1.0" encoding="utf-8"?>
<!-- Generator: Adobe Illustrator 15.0.0, SVG Export Plug-In . SVG Version: 6.00 Build 0)  -->
<!DOCTYPE svg PUBLIC "-//W3C//DTD SVG 1.1//EN" "http://www.w3.org/Graphics/SVG/1.1/DTD/svg11.dtd">
<svg version="1.1" id="Layer_1" xmlns="http://www.w3.org/2000/svg" xmlns:xlink="http://www.w3.org/1999/xlink" x="0px" y="0px"
	 width="100px" height="100px" viewBox="0 0 100 100" enable-background="new 0 0 100 100" xml:space="preserve">
<g>
	<g>
		<path fill="#FFFFFF" d="M75.495,100c-1.425,0-3.562-0.21-6.578-0.67c-3.1-0.461-6.702-1.593-11.06-3.394
			c-4.231-1.76-9.091-4.399-14.412-7.876c-5.362-3.478-11.102-8.337-17.051-14.369c-4.734-4.65-8.755-9.217-11.897-13.532
			S8.8,51.822,6.873,48.136c-1.927-3.687-3.393-7.122-4.398-10.138C1.51,34.981,0.84,32.3,0.463,30.08
			c-0.377-2.304-0.502-4.105-0.419-5.53c0.084-1.424,0.084-1.802,0.084-1.885c0-0.126,0-0.251,0.042-0.377
			c0.167-1.215,0.544-2.43,1.131-3.645c0.587-1.257,1.383-2.304,2.262-3.142l13.28-13.28C18.268,0.796,20.069,0,21.955,0
			c1.466,0,2.807,0.419,3.938,1.299c0.921,0.712,1.718,1.55,2.346,2.555c0.042,0.042,0.083,0.126,0.125,0.209l10.683,20.318
			c0.922,1.634,1.173,3.436,0.754,5.363c-0.377,1.801-1.215,3.31-2.43,4.566l-4.524,4.524c0.251,1.005,0.754,2.136,1.383,3.435
			c0.754,1.508,1.927,3.352,3.477,5.53c1.592,2.178,3.854,4.734,6.829,7.625l0.042,0.041c2.891,2.933,5.446,5.279,7.667,6.871
			c2.22,1.592,4.063,2.807,5.487,3.52c1.802,0.921,2.64,1.172,2.891,1.215l0.503,0.083l5.32-5.404
			c0.042-0.042,0.084-0.083,0.126-0.126c1.718-1.508,3.729-2.304,6.033-2.304c1.382,0,2.597,0.251,3.603,0.712
			c0.209,0.042,0.419,0.168,0.586,0.252l19.313,11.437c0,0,0.042,0,0.042,0.042c2.555,1.592,3.435,3.645,3.729,5.069
			c0,0.042,0.042,0.126,0.042,0.167c0.293,2.389-0.461,4.566-2.179,6.285L84.46,96.48c-0.838,0.922-1.885,1.676-3.142,2.263
			c-1.215,0.587-2.431,0.964-3.646,1.131c-0.083,0-0.209,0.042-0.293,0.042s-0.209,0-0.419,0.042
			C76.626,99.958,76.123,100,75.495,100z M5.616,22.916c0,0.251-0.042,0.754-0.084,1.885c-0.042,0.712,0,2.011,0.377,4.399
			c0.293,1.969,0.922,4.357,1.801,7.122c0.88,2.723,2.221,5.865,4.022,9.3c1.801,3.436,4.231,7.247,7.206,11.312
			c2.975,4.063,6.787,8.42,11.312,12.902c5.739,5.782,11.186,10.391,16.213,13.699c5.027,3.311,9.593,5.781,13.532,7.416
			c3.896,1.592,7.164,2.639,9.803,3.017c3.352,0.502,4.985,0.628,5.74,0.628c0.544,0,0.879,0,1.047-0.042
			c0.293-0.042,0.461-0.042,0.587-0.042c0.628-0.084,1.257-0.335,1.927-0.628c0.628-0.294,1.173-0.671,1.508-1.09
			c0.042-0.042,0.084-0.083,0.126-0.125L94.054,79.43c0.502-0.502,0.712-0.963,0.628-1.633c-0.084-0.377-0.335-0.881-1.215-1.425
			L74.531,65.187c-0.168-0.042-0.335-0.126-0.503-0.251c-0.042-0.043-0.419-0.21-1.299-0.21c-0.922,0-1.634,0.294-2.346,0.88
			l-5.655,5.739c-0.461,0.461-1.006,0.796-1.718,1.048c-0.838,0.293-1.425,0.377-2.053,0.251l-1.257-0.251
			c-1.09-0.21-2.472-0.754-4.315-1.719c-1.718-0.879-3.729-2.178-6.242-3.979c-2.43-1.76-5.237-4.273-8.337-7.416
			c-3.142-3.1-5.656-5.865-7.374-8.295c-1.759-2.43-3.058-4.482-3.938-6.242c-1.047-2.011-1.717-3.854-2.053-5.53
			c-0.042-0.167-0.042-0.335-0.042-0.503c0-0.502,0.083-1.005,0.293-1.592c0.251-0.712,0.545-1.257,1.005-1.718l4.902-4.901
			c0.502-0.503,0.796-1.089,0.963-1.843c0.125-0.628,0.084-1.131-0.209-1.592c0-0.042-0.042-0.042-0.042-0.084L23.672,6.745
			c-0.293-0.419-0.587-0.754-1.006-1.047c-0.209-0.126-0.377-0.209-0.67-0.209c-0.335,0-0.754,0.083-1.299,0.586L7.375,19.396
			c-0.042,0.042-0.084,0.084-0.084,0.084c-0.419,0.377-0.754,0.88-1.089,1.508C5.909,21.659,5.7,22.288,5.616,22.916z"/>
	</g>
</g>
</svg>
