<?xml version="1.0" encoding="utf-8"?>
<!-- Generator: Adobe Illustrator 18.0.0, SVG Export Plug-In . SVG Version: 6.00 Build 0)  -->
<!DOCTYPE svg PUBLIC "-//W3C//DTD SVG 1.1//EN" "http://www.w3.org/Graphics/SVG/1.1/DTD/svg11.dtd">
<svg version="1.1" id="Layer_1" xmlns="http://www.w3.org/2000/svg" xmlns:xlink="http://www.w3.org/1999/xlink" x="0px" y="0px"
	 viewBox="0 0 87 87" enable-background="new 0 0 87 87" xml:space="preserve">
<g>
	<circle fill="#EEEEEE" cx="43.5" cy="43.5" r="43.5"/>
	<path fill="#D98637" d="M43.5,3C65.8,3,84,21.2,84,43.5S65.8,84,43.5,84S3,65.8,3,43.5S21.2,3,43.5,3 M43.5,0C19.5,0,0,19.5,0,43.5
		S19.5,87,43.5,87S87,67.5,87,43.5S67.5,0,43.5,0L43.5,0z"/>
</g>
<g>
	<path fill="#D98637" d="M43.5,52.4c-4.9,0-8.9-4-8.9-8.9s4-8.9,8.9-8.9s8.9,4,8.9,8.9S48.4,52.4,43.5,52.4z M43.5,36.3
		c-4,0-7.2,3.3-7.2,7.2s3.3,7.2,7.2,7.2s7.2-3.3,7.2-7.2S47.5,36.3,43.5,36.3z"/>
	<path fill="#D98637" d="M43.5,32.9c-0.5,0-0.8-0.4-0.8-0.8v-4.2c0-0.5,0.4-0.8,0.8-0.8c0.5,0,0.8,0.4,0.8,0.8v4.2
		C44.3,32.5,44,32.9,43.5,32.9z"/>
	<path fill="#D98637" d="M43.5,60c-0.5,0-0.8-0.4-0.8-0.8v-4.2c0-0.5,0.4-0.8,0.8-0.8c0.5,0,0.8,0.4,0.8,0.8v4.2
		C44.3,59.6,44,60,43.5,60z"/>
	<path fill="#D98637" d="M59.2,44.3h-4.2c-0.5,0-0.8-0.4-0.8-0.8c0-0.5,0.4-0.8,0.8-0.8h4.2c0.5,0,0.8,0.4,0.8,0.8
		C60,44,59.6,44.3,59.2,44.3z"/>
	<path fill="#D98637" d="M32.1,44.3h-4.2c-0.5,0-0.8-0.4-0.8-0.8c0-0.5,0.4-0.8,0.8-0.8h4.2c0.5,0,0.8,0.4,0.8,0.8
		C32.9,44,32.5,44.3,32.1,44.3z"/>
	<path fill="#D98637" d="M51.6,36.3c-0.2,0-0.4-0.1-0.6-0.2c-0.3-0.3-0.3-0.9,0-1.2l3-3c0.3-0.3,0.9-0.3,1.2,0
		c0.3,0.3,0.3,0.9,0,1.2l-3,3C52,36.2,51.8,36.3,51.6,36.3z"/>
	<path fill="#D98637" d="M32.4,55.4c-0.2,0-0.4-0.1-0.6-0.2c-0.3-0.3-0.3-0.9,0-1.2l3-3c0.3-0.3,0.9-0.3,1.2,0
		c0.3,0.3,0.3,0.9,0,1.2l-3,3C32.8,55.3,32.6,55.4,32.4,55.4z"/>
	<path fill="#D98637" d="M54.6,55.4c-0.2,0-0.4-0.1-0.6-0.2l-3-3c-0.3-0.3-0.3-0.9,0-1.2c0.3-0.3,0.9-0.3,1.2,0l3,3
		c0.3,0.3,0.3,0.9,0,1.2C55,55.3,54.8,55.4,54.6,55.4z"/>
	<path fill="#D98637" d="M35.4,36.3c-0.2,0-0.4-0.1-0.6-0.2l-3-3c-0.3-0.3-0.3-0.9,0-1.2c0.3-0.3,0.9-0.3,1.2,0l3,3
		c0.3,0.3,0.3,0.9,0,1.2C35.8,36.2,35.6,36.3,35.4,36.3z"/>
</g>
</svg>
