<?xml version="1.0" encoding="utf-8"?>
<!-- Generator: Adobe Illustrator 15.0.0, SVG Export Plug-In . SVG Version: 6.00 Build 0)  -->
<!DOCTYPE svg PUBLIC "-//W3C//DTD SVG 1.1//EN" "http://www.w3.org/Graphics/SVG/1.1/DTD/svg11.dtd">
<svg version="1.1" id="Layer_1" xmlns="http://www.w3.org/2000/svg" xmlns:xlink="http://www.w3.org/1999/xlink" x="0px" y="0px"
	 width="100px" height="100px" viewBox="0 0 100 100" enable-background="new 0 0 100 100" xml:space="preserve">
<g>
	<defs>
		<rect id="SVGID_1_" x="5.309" y="1.622" width="89.382" height="96.757"/>
	</defs>
	<clipPath id="SVGID_2_">
		<use xlink:href="#SVGID_1_"  overflow="visible"/>
	</clipPath>
	<path clip-path="url(#SVGID_2_)" fill="#FFFFFF" d="M96.189,36.217c0-0.481-0.152-0.833-0.526-1.207L61.176,0.524
		C60.803,0.152,60.454,0,59.971,0c-0.478,0-0.839,0.155-1.204,0.523c-0.371,0.372-0.523,0.724-0.523,1.205v18.957l-2.412,0.161
		C29.949,22.567,13.13,31.282,7.195,46.05C4.952,51.722,3.811,58.95,3.811,67.517c0,7.057,2.803,16.925,8.332,29.332
		c0.107,0.254,0.246,0.569,0.432,0.99l0.28,0.637c0.246,0.554,0.474,1.063,0.683,1.523c-0.107-0.792-0.135-1.197-0.14-1.45
		c-0.228-3.085-0.342-5.908-0.342-8.396c0-4.693,0.418-8.979,1.244-12.746c0.827-3.799,2.007-7.16,3.506-9.986
		c1.54-2.904,3.553-5.443,5.982-7.547c2.355-2.043,4.94-3.746,7.679-5.061c2.733-1.302,5.947-2.332,9.563-3.063
		c2.729-0.556,6.954-1.059,12.558-1.494c0.624-0.048,1.266-0.091,1.92-0.129l2.735-0.159V70.71c0,0.476,0.155,0.835,0.521,1.2
		c0.37,0.372,0.729,0.528,1.206,0.528c0.481,0,0.831-0.152,1.205-0.527l34.49-34.488C96.038,37.051,96.189,36.702,96.189,36.217"/>
</g>
</svg>
