<?xml version="1.0" encoding="utf-8"?>
<!-- Generator: Adobe Illustrator 15.0.0, SVG Export Plug-In . SVG Version: 6.00 Build 0)  -->
<!DOCTYPE svg PUBLIC "-//W3C//DTD SVG 1.1//EN" "http://www.w3.org/Graphics/SVG/1.1/DTD/svg11.dtd">
<svg version="1.1" id="Layer_1" xmlns="http://www.w3.org/2000/svg" xmlns:xlink="http://www.w3.org/1999/xlink" x="0px" y="0px"
	 width="100px" height="100px" viewBox="0 0 100 100" enable-background="new 0 0 100 100" xml:space="preserve">
<g>
	<path fill="#FFFFFF" d="M95.391,10.447H4.609C2.083,10.447,0,12.53,0,15.056v69.887c0,2.526,2.083,4.609,4.609,4.609h90.782
		c2.526,0,4.609-2.083,4.609-4.609V15.056C100,12.53,97.917,10.447,95.391,10.447z M94.879,15.568v13.964H5.121V15.568H94.879z
		 M72.312,34.653v13.179H52.68V34.653H72.312z M47.559,47.832H29.635V34.653h17.924V47.832z M24.514,47.832H5.121V34.653h19.393
		V47.832z M24.514,52.953v13.179H5.121V52.953H24.514z M29.635,52.953h17.924v13.179H29.635V52.953z M47.559,71.253v13.179H29.635
		V71.253H47.559z M52.68,71.253h19.632v13.179H52.68V71.253z M52.68,66.132V52.953h19.632v13.179H52.68z M77.433,52.953h17.446
		v13.179H77.433V52.953z M77.433,47.832V34.653h17.446v13.179H77.433z M5.121,71.253h19.393v13.179H5.121V71.253z M77.433,84.432
		V71.253h17.446v13.179H77.433z"/>
	<path fill="#FFFFFF" d="M37.248,24.923h25.504c1.399,0,2.561-1.161,2.561-2.561c0-1.4-1.161-2.561-2.561-2.561H37.248
		c-1.399,0-2.561,1.161-2.561,2.561C34.688,23.762,35.849,24.923,37.248,24.923z"/>
</g>
</svg>
