<?xml version="1.0" encoding="utf-8"?>
<!-- Generator: Adobe Illustrator 18.0.0, SVG Export Plug-In . SVG Version: 6.00 Build 0)  -->
<!DOCTYPE svg PUBLIC "-//W3C//DTD SVG 1.1//EN" "http://www.w3.org/Graphics/SVG/1.1/DTD/svg11.dtd">
<svg version="1.1" id="Layer_1" xmlns="http://www.w3.org/2000/svg" xmlns:xlink="http://www.w3.org/1999/xlink" x="0px" y="0px"
	 viewBox="0 0 87 87" enable-background="new 0 0 87 87" xml:space="preserve">
<g>
	<g>
		<circle fill="#EEEEEE" cx="43.5" cy="43.5" r="43.5"/>
		<path fill="#D98637" d="M43.5,3C65.8,3,84,21.2,84,43.5S65.8,84,43.5,84S3,65.8,3,43.5S21.2,3,43.5,3 M43.5,0
			C19.5,0,0,19.5,0,43.5S19.5,87,43.5,87S87,67.5,87,43.5S67.5,0,43.5,0L43.5,0z"/>
	</g>
	<g>
		<path fill="#D98637" d="M29.4,43.5c0.5,0,0.9-0.4,0.9-0.9c0-7.2,5.9-13.1,13.2-13.1c7.3,0,13.2,5.9,13.2,13.1
			c0,0.5,0.4,0.9,0.9,0.9c0.5,0,0.9-0.4,0.9-0.9c0-8.3-6.8-15-15.1-15s-15.1,6.7-15.1,15C28.4,43.1,28.8,43.5,29.4,43.5z"/>
		<path fill="#D98637" d="M53.6,55.6c0.4-0.3,0.4-0.9,0.1-1.3c-0.3-0.4-0.9-0.4-1.3-0.1c-2.4,2.2-5.6,3.4-8.9,3.4
			c-3.3,0-6.4-1.2-8.9-3.4c-0.4-0.3-1-0.3-1.3,0.1c-0.4,0.4-0.3,1,0.1,1.3c2.8,2.5,6.4,3.9,10.1,3.9C47.3,59.5,50.9,58.1,53.6,55.6z
			"/>
		<path fill="#D98637" d="M24.6,48h37.7c0.5,0,0.9-0.4,0.9-0.9c0-0.5-0.4-0.9-0.9-0.9H24.6c-0.5,0-0.9,0.4-0.9,0.9
			C23.7,47.5,24.1,48,24.6,48z"/>
		<path fill="#D98637" d="M56.7,49.8H30.3c-0.5,0-0.9,0.4-0.9,0.9c0,0.5,0.4,0.9,0.9,0.9h26.4c0.5,0,0.9-0.4,0.9-0.9
			C57.6,50.3,57.2,49.8,56.7,49.8z"/>
	</g>
</g>
</svg>
