<?xml version="1.0" encoding="utf-8"?>
<!-- Generator: Adobe Illustrator 15.0.0, SVG Export Plug-In . SVG Version: 6.00 Build 0)  -->
<!DOCTYPE svg PUBLIC "-//W3C//DTD SVG 1.1//EN" "http://www.w3.org/Graphics/SVG/1.1/DTD/svg11.dtd">
<svg version="1.1" id="Layer_1" xmlns="http://www.w3.org/2000/svg" xmlns:xlink="http://www.w3.org/1999/xlink" x="0px" y="0px"
	 width="100.914px" height="45.255px" viewBox="0 0 100.914 45.255" enable-background="new 0 0 100.914 45.255"
	 xml:space="preserve">
<g>
	<defs>
		<rect id="SVGID_1_" width="100.914" height="45.255"/>
	</defs>
	<clipPath id="SVGID_2_">
		<use xlink:href="#SVGID_1_"  overflow="visible"/>
	</clipPath>
	<path clip-path="url(#SVGID_2_)" fill="#D7D7D7" d="M78.714,35.62c-7.166,0-12.996-5.83-12.996-12.996
		c0-7.162,5.83-12.988,12.996-12.988c5.638,0,10.438,3.619,12.227,8.651h9.974C98.885,7.881,89.704,0,78.714,0
		c-10.826,0-19.896,7.641-22.11,17.809H0v9.636h5.491v16.931h9.635V27.445h8.182v16.931h9.635V27.445h23.661
		c2.217,10.17,11.286,17.81,22.11,17.81c10.988,0,20.168-7.881,22.199-18.287h-9.975C89.146,32.001,84.352,35.62,78.714,35.62"/>
</g>
</svg>
