<?xml version="1.0" encoding="utf-8"?>
<!-- Generator: Adobe Illustrator 15.0.0, SVG Export Plug-In . SVG Version: 6.00 Build 0)  -->
<!DOCTYPE svg PUBLIC "-//W3C//DTD SVG 1.1//EN" "http://www.w3.org/Graphics/SVG/1.1/DTD/svg11.dtd">
<svg version="1.1" id="Layer_1" xmlns="http://www.w3.org/2000/svg" xmlns:xlink="http://www.w3.org/1999/xlink" x="0px" y="0px"
	 width="100px" height="100px" viewBox="0 0 100 100" enable-background="new 0 0 100 100" xml:space="preserve">
<g>
	<circle fill="#FFFFFF" cx="42.36" cy="46.18" r="5.195"/>
	<circle fill="#FFFFFF" cx="59.358" cy="46.18" r="5.195"/>
	<circle fill="#FFFFFF" cx="25.363" cy="46.18" r="5.195"/>
	<path fill="#FFFFFF" d="M79.946,19.824H4.774C2.139,19.824,0,21.963,0,24.599v43.163c0,2.636,2.139,4.774,4.774,4.774H44.69
		l26.814,22.345c0.458,0.383,1.031,0.574,1.604,0.574c0.344,0,0.726-0.076,1.069-0.23c0.878-0.42,1.413-1.299,1.413-2.252V72.536
		h4.354c2.636,0,4.774-2.139,4.774-4.774V24.599C84.721,21.963,82.582,19.824,79.946,19.824z M79.756,67.57h-6.646
		c-1.375,0-2.482,1.107-2.482,2.483v17.608L47.211,68.144c-0.458-0.382-0.993-0.573-1.604-0.573H4.966V24.79h74.79V67.57z"/>
	<path fill="#FFFFFF" d="M95.226,4.545H20.054c-2.636,0-4.775,2.139-4.775,4.775v3.438c0,1.375,1.108,2.483,2.483,2.483
		s2.483-1.108,2.483-2.483V9.511h74.79v42.781h-3.246c-1.376,0-2.483,1.107-2.483,2.483c0,1.375,1.107,2.482,2.483,2.482h3.438
		c2.636,0,4.774-2.139,4.774-4.775V9.32C100,6.685,97.861,4.545,95.226,4.545z"/>
</g>
</svg>
